<svg width="64" height="46" viewBox="0 0 64 46" fill="none" xmlns="http://www.w3.org/2000/svg">
<path d="M63.5775 21.2528V24.4677C63.5775 25.3555 62.8755 26.0751 62.0095 26.0751H11.3007L25.2558 40.3491C25.5527 40.6509 25.7196 41.0618 25.7196 41.4904C25.7196 41.919 25.5527 42.3298 25.2558 42.6316L23.0293 44.882C22.7349 45.1863 22.3341 45.3575 21.916 45.3575C21.4979 45.3575 21.0971 45.1863 20.8027 44.882L1.54783 25.175C1.10662 24.7232 0.858459 24.1104 0.85791 23.4711V22.2494C0.865135 21.6116 1.11229 21.0012 1.54783 20.5456L20.8027 0.838511C21.0971 0.534205 21.4979 0.363037 21.916 0.363037C22.3341 0.363037 22.7349 0.534205 23.0293 0.838511L25.2558 3.12106C25.5508 3.41735 25.717 3.82289 25.717 4.24626C25.717 4.66962 25.5508 5.07516 25.2558 5.37146L11.3007 19.6454H62.0095C62.8755 19.6454 63.5775 20.3651 63.5775 21.2528Z" fill="black"/>
</svg>
