<svg width="69" height="69" viewBox="0 0 69 69" fill="none" xmlns="http://www.w3.org/2000/svg">
<path d="M67.6135 15.2267L41.0623 0.647139C40.6634 0.428167 40.1797 0.428167 39.7808 0.647139L29.7731 6.14224C29.5619 6.19789 29.3648 6.304 29.2015 6.45639L13.2301 15.2267C12.8041 15.4602 12.5394 15.9075 12.5394 16.3939V34.0271C9.84512 34.8697 7.3761 36.3557 5.32318 38.4091C-0.0278414 43.7596 -1.39212 51.9203 1.92834 58.7158C2.25081 59.3763 3.04816 59.6504 3.70872 59.3274C4.36979 59.0044 4.64338 58.2071 4.3209 57.5465C1.49976 51.7726 2.65911 44.8389 7.20602 40.292C10.0495 37.4484 13.8298 35.8824 17.8508 35.8824C21.8719 35.8824 25.6522 37.4484 28.4957 40.292C31.3387 43.1349 32.9047 46.9152 32.9047 50.9363C32.9047 54.9573 31.3387 58.7376 28.4951 61.5811C23.9482 66.128 17.0145 67.2874 11.2406 64.4662C10.5801 64.1432 9.78271 64.4173 9.46023 65.0779C9.13723 65.739 9.41082 66.5363 10.0719 66.8588C12.5472 68.0686 15.2029 68.6563 17.8394 68.6563C22.4388 68.6558 26.9769 66.8656 30.3785 63.464C31.9384 61.9041 33.171 60.1045 34.0433 58.1483L39.7808 61.2987C39.9805 61.4084 40.201 61.463 40.4216 61.463C40.6421 61.463 40.8631 61.4084 41.0623 61.2987L67.6135 46.7196C68.0395 46.4856 68.3043 46.0383 68.3043 45.5525V36.299C68.3043 35.5635 67.7082 34.9675 66.9728 34.9675C66.2373 34.9675 65.6412 35.5635 65.6412 36.299V44.7645L41.7572 57.8794V31.7588L49.6397 27.4304V34.2918C49.6397 34.763 49.8883 35.1989 50.2935 35.4382C50.5026 35.5614 50.7366 35.6233 50.9712 35.6233C51.1917 35.6233 51.4128 35.5687 51.613 35.4585L57.3026 32.3268C57.7281 32.0927 57.9918 31.6459 57.9918 31.1607V22.8439L65.6412 18.6439V25.6474C65.6412 26.3828 66.2373 26.9789 66.9728 26.9789C67.7082 26.9789 68.3043 26.3828 68.3043 25.6474V16.3939C68.3043 15.9081 68.0395 15.4602 67.6135 15.2267ZM40.4216 3.33305L64.2062 16.3939L56.7035 20.5138L32.9188 7.45295L40.4216 3.33305ZM40.4216 29.4542L16.6369 16.3939L24.4148 12.1226L48.2 25.1829L40.4216 29.4542ZM50.966 23.6641L27.1813 10.6039L30.1523 8.97223L53.9375 22.0325L50.966 23.6641ZM30.3785 38.4091C27.032 35.0626 22.5829 33.2198 17.8508 33.2198C16.9557 33.2198 16.0715 33.2859 15.2024 33.4154V18.6439L39.0947 31.7635V57.8841L34.9478 55.607C35.3561 54.1038 35.5672 52.5362 35.5672 50.9363C35.5672 46.2042 33.7245 41.7551 30.3785 38.4091ZM55.3293 30.3737L52.3027 32.0397V25.9683L55.3293 24.3065V30.3737Z" fill="#07484A"/>
<path d="M66.9726 29.635C66.6226 29.635 66.2788 29.7775 66.0312 30.0251C65.7836 30.2727 65.6411 30.616 65.6411 30.9665C65.6411 31.3166 65.7836 31.6599 66.0312 31.9074C66.2788 32.1555 66.6226 32.2975 66.9726 32.2975C67.3227 32.2975 67.6665 32.1555 67.9141 31.9074C68.1616 31.6599 68.3041 31.3166 68.3041 30.9665C68.3041 30.616 68.1616 30.2727 67.9141 30.0251C67.6665 29.7775 67.3227 29.635 66.9726 29.635Z" fill="#07484A"/>
<path d="M13.3739 52.2678C13.7146 52.2678 14.0558 52.1377 14.3153 51.8782C14.8355 51.3581 14.8355 50.515 14.3153 49.9948L13.3932 49.0721H21.2626C23.1715 49.0721 24.7246 50.6252 24.7246 52.5341C24.7246 54.4429 23.1715 55.996 21.2626 55.996H16.5997C15.8643 55.996 15.2682 56.5921 15.2682 57.3275C15.2682 58.0625 15.8643 58.6585 16.5997 58.6585H21.2626C24.6398 58.6585 27.3876 55.9112 27.3876 52.5341C27.3876 49.1569 24.6398 46.4096 21.2626 46.4096H13.3932L14.3153 45.4869C14.8355 44.9668 14.8355 44.1237 14.3153 43.6036C13.7957 43.084 12.9526 43.084 12.4325 43.6036L9.23687 46.7992C8.71727 47.3193 8.71727 48.1624 9.23687 48.6826L12.4325 51.8777C12.6926 52.1377 13.0332 52.2678 13.3739 52.2678Z" fill="#07484A"/>
<path d="M6.26594 63.8558C5.88729 63.8558 5.51124 63.6945 5.24858 63.3819L5.24598 63.3788C4.77267 62.816 4.84548 61.9766 5.40826 61.5032C5.97103 61.0294 6.81103 61.1022 7.28434 61.665C7.75713 62.2283 7.68587 63.0693 7.1231 63.5426C6.87292 63.7528 6.56865 63.8558 6.26594 63.8558Z" fill="#07484A"/>
</svg>
