<svg width="70" height="55" viewBox="0 0 70 55" fill="none" xmlns="http://www.w3.org/2000/svg">
<path fill-rule="evenodd" clip-rule="evenodd" d="M67.5777 8.53533H2.67659C1.62235 8.53533 0.76773 7.6807 0.76773 6.62647V2.80876C0.76773 1.75453 1.62235 0.899902 2.67659 0.899902H67.5777C68.6319 0.899902 69.4865 1.75453 69.4865 2.80876V6.62647C69.4865 7.6807 68.6319 8.53533 67.5777 8.53533ZM69.4864 29.5328V25.7151C69.4864 24.6608 68.6318 23.8062 67.5775 23.8062H2.67643C1.6222 23.8062 0.767578 24.6608 0.767578 25.7151V29.5328C0.767578 30.587 1.6222 31.4416 2.67643 31.4416H67.5775C68.6318 31.4416 69.4864 30.587 69.4864 29.5328ZM69.4864 48.6214V52.4391C69.4864 53.4934 68.6318 54.348 67.5775 54.348H2.67643C1.6222 54.348 0.767578 53.4934 0.767578 52.4391V48.6214C0.767578 47.5672 1.6222 46.7126 2.67643 46.7126H67.5775C68.6318 46.7126 69.4864 47.5672 69.4864 48.6214Z" fill="#07484A"/>
</svg>
