<svg width="65" height="74" viewBox="0 0 65 74" fill="none" xmlns="http://www.w3.org/2000/svg">
<path d="M32.9585 0.755859C15.2908 0.755859 0.916992 15.0019 0.916992 32.5124C0.916992 34.453 0.916992 49.4645 0.916992 49.7315C0.916992 53.2337 3.79176 56.0829 7.32529 56.0829H9.8288C10.7106 58.5469 13.0849 60.3171 15.8697 60.3171C19.4032 60.3171 22.278 57.4679 22.278 53.9658V36.7466C22.278 33.2445 19.4032 30.3953 15.8697 30.3953C13.0849 30.3953 10.7106 32.1655 9.8288 34.6295H7.32529C6.57638 34.6295 5.85779 34.7587 5.18919 34.9937V32.5124C5.18919 17.3366 17.6465 4.99007 32.9585 4.99007C48.2705 4.99007 60.7278 17.3366 60.7278 32.5124V34.9937C60.0592 34.7587 59.3406 34.6295 58.5917 34.6295H56.0882C55.2064 32.1655 52.8321 30.3953 50.0473 30.3953C46.5138 30.3953 43.639 33.2445 43.639 36.7466V53.9658C43.639 57.4679 46.5138 60.3171 50.0473 60.3171C50.694 60.3171 51.3183 60.2208 51.9073 60.0434C51.1082 62.6491 48.662 64.5513 45.7751 64.5513H38.9994C38.1176 62.0873 35.7433 60.3171 32.9585 60.3171C29.425 60.3171 26.5502 63.1663 26.5502 66.6684C26.5502 70.1705 29.425 73.0197 32.9585 73.0197C35.7433 73.0197 38.1176 71.2495 38.9994 68.7855H45.7751C51.6643 68.7855 56.4556 64.0368 56.4556 58.2V56.0829H58.5917C62.1253 56.0829 65 53.2337 65 49.7315C65 49.4685 65 34.4514 65 32.5124C65 15.0019 50.6262 0.755859 32.9585 0.755859ZM13.7336 36.7466C13.7336 35.5793 14.6919 34.6295 15.8697 34.6295C17.0475 34.6295 18.0058 35.5793 18.0058 36.7466V53.9658C18.0058 55.1331 17.0475 56.0829 15.8697 56.0829C14.6919 56.0829 13.7336 55.1331 13.7336 53.9658V36.7466ZM7.32529 38.8637H9.4614V51.8487H7.32529C6.14745 51.8487 5.18919 50.8989 5.18919 49.7315V40.9808C5.18919 39.8135 6.14745 38.8637 7.32529 38.8637ZM32.9585 68.7855C31.7807 68.7855 30.8224 67.8358 30.8224 66.6684C30.8224 65.501 31.7807 64.5513 32.9585 64.5513C34.1363 64.5513 35.0946 65.501 35.0946 66.6684C35.0946 67.8358 34.1363 68.7855 32.9585 68.7855ZM52.1834 53.9658C52.1834 55.1331 51.2252 56.0829 50.0473 56.0829C48.8695 56.0829 47.9112 55.1331 47.9112 53.9658V36.7466C47.9112 35.5793 48.8695 34.6295 50.0473 34.6295C51.2252 34.6295 52.1834 35.5793 52.1834 36.7466V53.9658ZM60.7278 49.7315C60.7278 50.8989 59.7696 51.8487 58.5917 51.8487H56.4556V38.8637H58.5917C59.7696 38.8637 60.7278 39.8135 60.7278 40.9808V49.7315Z" fill="#07484A"/>
</svg>
