<svg width="69" height="69" viewBox="0 0 69 69" fill="none" xmlns="http://www.w3.org/2000/svg">
<path d="M23.5033 52.6665C23.486 52.5813 23.4607 52.4974 23.4274 52.4162C23.3941 52.3363 23.3529 52.259 23.3049 52.1871C23.257 52.1139 23.2011 52.046 23.1398 51.9847C23.0785 51.9235 23.0106 51.8675 22.9374 51.8196C22.8655 51.7717 22.7882 51.7304 22.707 51.6971C22.6271 51.6638 22.5432 51.6372 22.458 51.6212C22.2862 51.5866 22.1091 51.5866 21.9387 51.6212C21.8534 51.6372 21.7695 51.6638 21.6883 51.6971C21.6084 51.7304 21.5312 51.7717 21.4593 51.8196C21.386 51.8675 21.3181 51.9235 21.2569 51.9847C21.1956 52.046 21.1397 52.1139 21.0917 52.1871C21.0425 52.259 21.0025 52.3363 20.9692 52.4162C20.9359 52.4974 20.9093 52.5813 20.8933 52.6665C20.876 52.7517 20.8667 52.8396 20.8667 52.9262C20.8667 53.0127 20.876 53.1006 20.8933 53.1859C20.9093 53.2711 20.9359 53.355 20.9692 53.4349C21.0025 53.5161 21.0425 53.5933 21.0917 53.6652C21.1397 53.7385 21.1956 53.8064 21.2569 53.8676C21.3181 53.9289 21.386 53.9848 21.4593 54.0328C21.5312 54.0808 21.6084 54.1221 21.6883 54.1554C21.7695 54.1887 21.8534 54.2153 21.9387 54.2313C22.0239 54.2486 22.1118 54.2579 22.1983 54.2579C22.2849 54.2579 22.3728 54.2486 22.458 54.2313C22.5432 54.2153 22.6271 54.1887 22.707 54.1554C22.7882 54.1221 22.8655 54.0807 22.9374 54.0328C23.0106 53.9848 23.0785 53.9289 23.1398 53.8676C23.2011 53.8064 23.257 53.7385 23.3049 53.6652C23.3529 53.5933 23.3941 53.5161 23.4274 53.4349C23.4607 53.355 23.486 53.2711 23.5033 53.1859C23.5206 53.1006 23.53 53.0127 23.53 52.9262C23.53 52.8396 23.5206 52.7517 23.5033 52.6665Z" fill="#07484A"/>
<path d="M61.78 53.0771C61.7749 53.0638 61.7695 53.0506 61.7639 53.0376C60.5383 50.1696 57.6638 49.1096 54.2621 50.2715L44.9848 52.837C44.4484 51.2127 43.1106 49.8305 41.2188 49.1284C41.2071 49.1242 41.1954 49.1199 41.1836 49.1159L30.9858 45.6547C30.137 44.5576 27.4783 41.7502 22.5002 41.7502C19.0213 41.7502 15.9438 44.1368 14.1831 46.7381H1.85751C1.12205 46.7381 0.525879 47.3343 0.525879 48.0698V64.8586C0.525879 65.594 1.12205 66.1902 1.85751 66.1902H9.775C10.5105 66.1902 11.1066 65.594 11.1066 64.8586V63.7088H14.8196C15.5551 63.7088 16.1513 63.1127 16.1513 62.3772V61.994C18.3157 62.1828 19.0276 62.5933 21.0154 63.7396C22.5442 64.6212 24.8547 65.9534 29.0155 67.8243C29.0348 67.8329 29.0544 67.8412 29.074 67.8489C29.8725 68.163 31.4336 68.6565 33.3582 68.6565C34.6978 68.6565 36.2139 68.4172 37.77 67.7119L58.276 60.3698C58.3125 60.3567 58.3484 60.3421 58.3836 60.3258C60.3433 59.4242 63.2638 56.883 61.78 53.0771ZM8.44337 63.5268H3.18914V49.4013H8.44337V63.5268ZM13.488 61.0455H11.1066V49.4013H13.488V61.0455ZM57.3195 57.8832L36.8227 65.222C36.8047 65.2284 36.7804 65.238 36.7627 65.2452C36.7447 65.2525 36.7267 65.2602 36.709 65.2683C33.8544 66.5802 31.1409 65.7949 30.0775 65.3814C26.0583 63.5729 23.9132 62.3359 22.3459 61.4322C20.1668 60.1756 19.1168 59.57 16.1513 59.3251V48.5999C17.4135 46.5311 19.8613 44.4134 22.5003 44.4134C27.026 44.4134 28.9437 47.3569 29.0191 47.4757C29.1817 47.7402 29.4316 47.9395 29.7255 48.0393L40.3087 51.6312C41.9989 52.2656 42.8922 53.7131 42.4816 55.1566C42.2921 55.8232 41.8543 56.3761 41.2489 56.7134C40.6488 57.0478 39.955 57.1305 39.2937 56.9475L27.3632 53.1667C26.6617 52.9445 25.9136 53.3328 25.6915 54.0339C25.4692 54.735 25.8575 55.4834 26.5586 55.7056L38.5099 59.4929C38.5225 59.4969 38.5352 59.5008 38.548 59.5044C39.0251 59.64 39.5109 59.7072 39.9937 59.7072C40.8777 59.7072 41.7519 59.482 42.5453 59.0399C43.7721 58.3564 44.6592 57.2359 45.0433 55.885C45.0739 55.7771 45.1011 55.6693 45.1247 55.5614L55.1229 52.7916C56.567 52.2984 58.4626 52.1206 59.3065 54.0644C60.1801 56.3464 57.9097 57.6017 57.3195 57.8832Z" fill="#07484A"/>
<path d="M48.3391 17.9963C48.3218 17.9111 48.2965 17.8272 48.2619 17.746C48.2286 17.6661 48.1887 17.5889 48.1394 17.517C48.0915 17.4437 48.0355 17.3758 47.9743 17.3146C47.913 17.2533 47.8451 17.1974 47.7719 17.1494C47.7 17.1015 47.6227 17.0602 47.5428 17.0269C47.4616 16.9936 47.3777 16.967 47.2938 16.951C47.122 16.9164 46.9449 16.9164 46.7731 16.951C46.6879 16.967 46.604 16.9936 46.5241 17.0269C46.4429 17.0602 46.3657 17.1015 46.2937 17.1494C46.2205 17.1974 46.1526 17.2533 46.0913 17.3146C46.0301 17.3758 45.9742 17.4437 45.9262 17.517C45.8783 17.5889 45.837 17.6661 45.8037 17.746C45.7704 17.8272 45.7438 17.9111 45.7278 17.9963C45.7105 18.0816 45.7012 18.1695 45.7012 18.256C45.7012 18.3426 45.7105 18.4305 45.7278 18.5157C45.7438 18.6009 45.7704 18.6848 45.8037 18.7647C45.837 18.8459 45.8783 18.9232 45.9262 18.9951C45.9742 19.0683 46.0301 19.1362 46.0913 19.1975C46.1526 19.2587 46.2205 19.3147 46.2937 19.3626C46.3657 19.4105 46.4429 19.4518 46.5241 19.4851C46.604 19.5184 46.6879 19.5437 46.7731 19.561C46.8584 19.5783 46.9462 19.5876 47.0328 19.5876C47.1194 19.5876 47.2072 19.5783 47.2938 19.561C47.3777 19.5437 47.4616 19.5184 47.5428 19.4851C47.6227 19.4518 47.7 19.4105 47.7719 19.3626C47.8451 19.3147 47.913 19.2587 47.9743 19.1975C48.0355 19.1362 48.0915 19.0683 48.1394 18.9951C48.1887 18.9232 48.2286 18.8459 48.2619 18.7647C48.2965 18.6848 48.3218 18.6009 48.3391 18.5157C48.3564 18.4305 48.3644 18.3426 48.3644 18.256C48.3644 18.1695 48.3564 18.0816 48.3391 17.9963Z" fill="#07484A"/>
<path d="M67.3737 4.99285H59.4562C58.7208 4.99285 58.1246 5.58902 58.1246 6.32448V7.47421H54.4116C53.6762 7.47421 53.08 8.07039 53.08 8.80585V9.18909C50.9156 9.00013 50.2037 8.58972 48.2159 7.44345C46.6872 6.56191 44.3767 5.22961 40.2158 3.3588C40.1964 3.35001 40.177 3.34189 40.1572 3.33417C38.8028 2.80125 35.253 1.75272 31.4617 3.47093L26.1032 5.38954L21.5865 0.872912C21.0665 0.35291 20.2233 0.35291 19.7033 0.872912L4.87449 15.7016C4.39484 16.1814 4.30282 17.0132 4.87449 17.5849L30.2137 42.9241C30.6192 43.3298 31.5687 43.4524 32.0971 42.9241L45.6351 29.3862C45.987 29.4166 46.3523 29.433 46.7309 29.433C50.2099 29.433 53.2873 27.0464 55.0479 24.4452H67.3737C68.1092 24.4452 68.7054 23.849 68.7054 23.1136V6.32448C68.7054 5.58902 68.1092 4.99285 67.3737 4.99285ZM20.6448 3.6977L23.6798 6.73276C22.7776 7.29071 21.7346 7.58927 20.6448 7.58927C19.5548 7.58927 18.5119 7.29085 17.6097 6.73276L20.6448 3.6977ZM10.7345 19.6784L7.69942 16.6432L10.7345 13.6081C11.2924 14.5103 11.591 15.5534 11.591 16.6432C11.591 17.733 11.2926 18.776 10.7345 19.6784ZM31.1555 40.0992L28.1209 37.0647C29.9736 35.9213 32.337 35.9213 34.1898 37.0647L31.1555 40.0992ZM36.1085 35.1463C33.1658 33.0117 29.1451 33.0117 26.2024 35.1463L12.653 21.5967C13.6928 20.1665 14.2542 18.4486 14.2542 16.6432C14.2542 14.8376 13.693 13.1198 12.653 11.6896L15.6913 8.65138C17.1215 9.69125 18.8393 10.2527 20.6449 10.2527C22.4504 10.2527 24.1682 9.69125 25.5984 8.65138L28.4786 11.5316C27.8571 11.6233 27.2511 11.8281 26.686 12.1431C25.7315 12.6749 24.9825 13.4714 24.5162 14.4349C23.0141 14.7131 21.6235 15.4403 20.5326 16.531C17.5731 19.4907 17.5731 24.3063 20.5328 27.266C22.0125 28.7457 23.9563 29.4857 25.9002 29.4857C27.844 29.4857 29.7879 28.7458 31.2677 27.266C32.2305 26.3032 32.905 25.1199 33.2428 23.8304L37.7389 25.3563C37.2328 27.701 37.7512 30.1678 39.1495 32.1053L36.1085 35.1463ZM28.0124 22.0547C28.0241 22.0589 28.0358 22.0632 28.0477 22.0672L30.7104 22.971C30.5093 23.8785 30.0543 24.7129 29.3845 25.3828C27.4632 27.3038 24.3371 27.3041 22.4161 25.3828C20.4948 23.4617 20.4948 20.3357 22.4161 18.4144C22.8795 17.9507 23.4264 17.5884 24.0223 17.3427C24.2681 19.3883 25.741 21.2117 28.0124 22.0547ZM41.0683 30.1864C40.5543 29.3488 40.2634 28.3928 40.2175 27.4171C40.8553 27.8783 41.6349 28.3301 42.566 28.6887L41.0683 30.1864ZM53.0799 22.5826C51.8177 24.6517 49.3699 26.7694 46.7309 26.7694C46.2371 26.7694 45.7744 26.7343 45.3417 26.6717C45.34 26.6714 45.3383 26.6712 45.3365 26.6709C42.4608 26.2532 40.9138 24.6187 40.4039 23.9715C40.3767 23.9316 40.261 23.7802 40.2438 23.755C40.0887 23.4778 39.8344 23.2549 39.51 23.1447L28.9224 19.5513C27.2329 18.9172 26.3397 17.4704 26.7491 16.0274C26.7494 16.0265 26.7496 16.0256 26.7499 16.0246C26.7503 16.0236 26.7505 16.0224 26.7508 16.0213C26.9411 15.3568 27.3781 14.8056 27.9822 14.4691C28.5822 14.1348 29.2759 14.0518 29.9374 14.2352L41.8679 18.0158C42.5691 18.2383 43.3175 17.8498 43.5396 17.1487C43.7618 16.4476 43.3736 15.6992 42.6725 15.4769L33.1839 12.4701L33.1011 12.3873C33.1003 12.3865 33.0995 12.3855 33.0986 12.3847L28.1862 7.47235L32.4085 5.96041C32.4228 5.95522 32.4403 5.9487 32.4545 5.94297C32.4581 5.9415 32.465 5.93884 32.4684 5.93738C32.4866 5.93005 32.5044 5.92233 32.5221 5.91421C35.3766 4.60228 38.0899 5.38755 39.1535 5.80115C43.1728 7.60964 45.318 8.84659 46.8854 9.75037C49.0644 11.007 50.1144 11.6125 53.0799 11.8574V22.5826ZM58.1246 21.7817H55.7433V10.1375H58.1246V21.7817ZM66.0421 21.7817H60.7879V7.65611H66.0421V21.7817Z" fill="#07484A"/>
</svg>
