<svg width="69" height="69" viewBox="0 0 69 69" fill="none" xmlns="http://www.w3.org/2000/svg">
<path fill-rule="evenodd" clip-rule="evenodd" d="M13.1158 7.53639H66.9046C67.8459 7.53639 68.609 8.29945 68.609 9.24073V10.9451C68.5843 13.7739 67.8205 16.547 66.3933 18.9895L58.383 33.0673C56.6496 36.1828 53.3916 38.1427 49.8272 38.2144H28.5912C27.8544 38.1986 27.1222 38.0956 26.4096 37.9077L23.001 45.0318H60.0873C61.0286 45.0318 61.7916 45.7948 61.7916 46.7361V50.1448C61.7916 51.0861 61.0286 51.8491 60.0873 51.8491H17.4789C16.5461 51.8707 15.6737 51.3889 15.1951 50.5879L14.4452 49.2926C14.0511 48.534 14.0511 47.6311 14.4452 46.8725L20.7853 34.2604C20.4391 33.8948 20.1307 33.495 19.865 33.0673L5.27586 7.53639H2.13988C1.1986 7.53639 0.435547 6.77333 0.435547 5.83206V2.42338C0.435547 1.48211 1.1986 0.719048 2.13988 0.719048H5.27586C7.72114 0.70934 9.98432 2.01002 11.2069 4.12772L13.1158 7.53639ZM20.8874 55.2578C17.1222 55.2578 14.07 58.31 14.07 62.0752C14.07 65.8403 17.1222 68.8925 20.8874 68.8925C24.6525 68.8925 27.7047 65.8403 27.7047 62.0752C27.7047 58.31 24.6525 55.2578 20.8874 55.2578ZM61.7914 62.0752C61.7914 65.8403 58.7392 68.8925 54.9741 68.8925C51.209 68.8925 48.1567 65.8403 48.1567 62.0752C48.1567 58.31 51.209 55.2578 54.9741 55.2578C58.7392 55.2578 61.7914 58.31 61.7914 62.0752Z" fill="#07484A"/>
</svg>
