<svg width="68" height="67" viewBox="0 0 68 67" fill="none" xmlns="http://www.w3.org/2000/svg">
<path fill-rule="evenodd" clip-rule="evenodd" d="M34.322 0.0825195C15.8729 0.0825195 0.916992 15.0384 0.916992 33.4875C0.916992 51.9366 15.8729 66.8925 34.322 66.8925C52.771 66.8925 67.727 51.9366 67.727 33.4875C67.727 24.628 64.2075 16.1313 57.9429 9.86661C51.6782 3.60196 43.1815 0.0825195 34.322 0.0825195ZM34.3217 10.1042C39.8564 10.1042 44.3432 14.5909 44.3432 20.1257C44.3432 25.6604 39.8564 30.1472 34.3217 30.1472C28.787 30.1472 24.3002 25.6604 24.3002 20.1257C24.3002 14.5909 28.787 10.1042 34.3217 10.1042ZM34.3211 56.8268C41.7206 56.8268 48.6834 53.3246 53.0947 47.3839C53.7783 46.3847 53.8678 45.0939 53.3286 44.01L52.5603 42.44C50.8794 39.0095 47.3944 36.833 43.5743 36.8279H25.068C21.1934 36.8321 17.6684 39.0694 16.0152 42.5736L15.3137 44.0434C14.7876 45.1184 14.8768 46.3927 15.5475 47.3839C19.9589 53.3246 26.9217 56.8268 34.3211 56.8268Z" fill="#07484A"/>
</svg>
